<svg xmlns="http://www.w3.org/2000/svg" width="1280" height="720" viewBox="0 0 1280 720"><defs><linearGradient id="bg" x1="0" y1="0" x2="1" y2="1"><stop stop-color="#06142e"/><stop offset=".55" stop-color="#092c63"/><stop offset="1" stop-color="#061027"/></linearGradient><linearGradient id="red" x1="0" y1="0" x2="1" y2="0"><stop stop-color="#ff2338"/><stop offset="1" stop-color="#d9002f"/></linearGradient><filter id="glow"><feGaussianBlur stdDeviation="8" result="b"/><feMerge><feMergeNode in="b"/><feMergeNode in="SourceGraphic"/></feMerge></filter><filter id="shadow"><feDropShadow dx="0" dy="8" stdDeviation="10" flood-opacity=".35"/></filter></defs><rect width="1280" height="720" fill="url(#bg)"/><g opacity=".16" stroke="#40b8ff" stroke-width="2"><path d="M0 140H1280M0 260H1280M0 380H1280M0 500H1280M0 620H1280"/><path d="M140 0V720M300 0V720M460 0V720M620 0V720M780 0V720M940 0V720M1100 0V720"/></g><rect x="34" y="28" width="360" height="64" rx="20" fill="#fff"/><circle cx="72" cy="60" r="22" fill="#1677ff"/><path d="M58 60h28M72 46v28M61 50c7 7 15 7 22 0M61 70c7-7 15-7 22 0" fill="none" stroke="#fff" stroke-width="2"/><text x="108" y="61" font-family="Arial" font-size="28" font-weight="800" fill="#102247">Gaurav’s <tspan fill="#1477ff">World</tspan></text><text x="110" y="82" font-family="Arial" font-size="13" letter-spacing="3" fill="#4b5870">EXPLORE • LEARN • DISCOVER</text><rect x="905" y="30" width="340" height="54" rx="27" fill="url(#red)"/><text x="1075" y="64" text-anchor="middle" font-family="Arial" font-size="20" font-weight="800" fill="#fff">AI • CYBER SECURITY • FRAUD</text><g filter="url(#shadow)"><ellipse cx="178" cy="636" rx="150" ry="30" fill="#020a19" opacity=".65"/><path d="M76 690c9-119 36-189 105-189s96 70 105 189z" fill="#09244c"/><path d="M106 532c21-32 42-47 76-47 36 0 58 18 77 49l-20 26c-25-16-46-22-68-22-24 0-45 8-68 23z" fill="#0a1833"/><ellipse cx="180" cy="442" rx="70" ry="86" fill="#d99367"/><path d="M116 432c2-72 38-104 81-104 45 0 72 33 72 83-23-10-38-28-48-49-20 28-54 44-105 48z" fill="#171827"/><rect x="121" y="429" width="50" height="25" rx="12" fill="none" stroke="#15233d" stroke-width="5"/><rect x="189" y="429" width="50" height="25" rx="12" fill="none" stroke="#15233d" stroke-width="5"/><path d="M171 441h18M159 481c13 8 27 8 40 0" stroke="#15233d" stroke-width="5" fill="none"/><rect x="133" y="550" width="92" height="125" rx="12" fill="#0d376f"/><path d="M148 572l70 72M218 572l-70 72" stroke="#1a6dd5" stroke-width="3" opacity=".8"/></g><g filter="url(#shadow)"><path d="M310 155L850 128l12 90-545 33z" fill="url(#red)"/><text x="345" y="208" font-family="Noto Sans Devanagari,Arial" font-size="62" font-weight="900" fill="#fff">AI से</text><text x="310" y="300" font-family="Arial" font-size="82" font-weight="900" fill="#ffe52b" stroke="#06142e" stroke-width="12" paint-order="stroke">Cyber Crime</text><text x="350" y="352" font-family="Arial" font-size="34" font-weight="800" fill="#fff">AI-Powered Scams</text><path d="M320 382L810 382" stroke="#ff263e" stroke-width="10"/><text x="350" y="432" font-family="Noto Sans Devanagari,Arial" font-size="42" font-weight="900" fill="#fff">से कैसे बचें?</text></g><g filter="url(#glow)"><circle cx="945" cy="200" r="92" fill="#04142d" stroke="#1da8ff" stroke-width="5"/><path d="M882 198c14-64 103-77 128-5 8 23 3 58-17 82-17 22-39 32-58 30-25-3-47-25-53-55z" fill="#071e43" stroke="#29b8ff" stroke-width="4"/><path d="M904 194l20-18 20 18-20 18zM951 194l20-18 20 18-20 18z" fill="#1db7ff"/><path d="M920 239h48" stroke="#ff2842" stroke-width="6"/><text x="945" y="308" text-anchor="middle" font-family="Arial" font-size="22" font-weight="800" fill="#fff">AI ATTACKS</text></g><g filter="url(#shadow)"><rect x="720" y="350" width="245" height="145" rx="20" fill="#09224a" stroke="#1b9dff" stroke-width="3"/><rect x="740" y="368" width="90" height="30" rx="15" fill="#ff263d"/><text x="785" y="390" text-anchor="middle" font-family="Arial" font-size="16" font-weight="800" fill="#fff">PHISHING</text><text x="740" y="427" font-family="Arial" font-size="19" font-weight="700" fill="#fff">“Account will be</text><text x="740" y="452" font-family="Arial" font-size="19" font-weight="700" fill="#fff">blocked. Click now!”</text><rect x="985" y="350" width="245" height="145" rx="20" fill="#09224a" stroke="#7b6cff" stroke-width="3"/><rect x="1005" y="368" width="92" height="30" rx="15" fill="#ff263d"/><text x="1051" y="390" text-anchor="middle" font-family="Arial" font-size="16" font-weight="800" fill="#fff">DEEPFAKE</text><circle cx="1107" cy="437" r="34" fill="#122e5b"/><path d="M1089 438c12-16 26-16 38 0M1097 451h20" stroke="#6ad2ff" stroke-width="4" fill="none"/><text x="1150" y="430" font-family="Arial" font-size="17" font-weight="700" fill="#fff">Fake video</text><text x="1150" y="454" font-family="Arial" font-size="17" font-weight="700" fill="#fff">or identity</text><rect x="720" y="510" width="245" height="120" rx="20" fill="#09224a" stroke="#ff4b5e" stroke-width="3"/><rect x="740" y="528" width="105" height="30" rx="15" fill="#ff263d"/><text x="792" y="550" text-anchor="middle" font-family="Arial" font-size="16" font-weight="800" fill="#fff">VOICE CLONE</text><path d="M744 590c18-35 25 35 43 0s25 35 43 0 25 35 43 0 25 35 43 0" fill="none" stroke="#23d3ff" stroke-width="5"/><rect x="985" y="510" width="245" height="120" rx="20" fill="#09224a" stroke="#ffcf38" stroke-width="3"/><rect x="1005" y="528" width="90" height="30" rx="15" fill="#ff263d"/><text x="1050" y="550" text-anchor="middle" font-family="Arial" font-size="16" font-weight="800" fill="#fff">FAKE LINK</text><text x="1005" y="586" font-family="Arial" font-size="17" font-weight="700" fill="#fff">Look-alike website</text><text x="1005" y="610" font-family="Arial" font-size="17" font-weight="700" fill="#ffcf38">OTP / Password trap</text></g><rect x="30" y="665" width="1220" height="44" rx="18" fill="#031126" stroke="#198fff" stroke-width="2"/><text x="60" y="694" font-family="Arial" font-size="19" font-weight="800" fill="#ffe43b">STOP</text><text x="125" y="694" font-family="Arial" font-size="19" font-weight="700" fill="#fff">• VERIFY</text><text x="275" y="694" font-family="Arial" font-size="19" font-weight="700" fill="#fff">• MFA</text><text x="385" y="694" font-family="Arial" font-size="19" font-weight="700" fill="#fff">• NEVER SHARE OTP</text><text x="640" y="694" font-family="Arial" font-size="19" font-weight="700" fill="#fff">• CHECK LINKS</text><text x="835" y="694" font-family="Arial" font-size="19" font-weight="700" fill="#fff">• REPORT FRAUD: 1930</text></svg>