<svg xmlns="http://www.w3.org/2000/svg" width="1280" height="720" viewBox="0 0 1280 720"><defs><linearGradient id="bg" x1="0" y1="0" x2="1" y2="1"><stop offset="0" stop-color="#071a36"/><stop offset=".52" stop-color="#0b5fae"/><stop offset="1" stop-color="#14234f"/></linearGradient><linearGradient id="red" x1="0" x2="1"><stop stop-color="#ef1b2d"/><stop offset="1" stop-color="#ff4b36"/></linearGradient><linearGradient id="yellow" x1="0" x2="1"><stop stop-color="#ffd429"/><stop offset="1" stop-color="#ff9d00"/></linearGradient><filter id="shadow"><feDropShadow dx="0" dy="8" stdDeviation="12" flood-opacity=".35"/></filter></defs><rect width="1280" height="720" fill="url(#bg)"/><circle cx="1110" cy="120" r="220" fill="#25c8ff" opacity=".10"/><circle cx="970" cy="590" r="260" fill="#a33cff" opacity=".10"/><rect x="36" y="28" width="350" height="64" rx="18" fill="#fff" opacity=".97"/><circle cx="72" cy="60" r="23" fill="#0876d1"/><path d="M52 60h40M72 40c-8 7-8 33 0 40M72 40c8 7 8 33 0 40M53 50c12 5 26 5 38 0M53 70c12-5 26-5 38 0" fill="none" stroke="#fff" stroke-width="2"/><text x="108" y="62" font-family="Arial,sans-serif" font-size="28" font-weight="800" fill="#172033">Gaurav's <tspan fill="#0876d1">World</tspan></text><rect x="1030" y="30" width="210" height="52" rx="26" fill="url(#red)" stroke="#fff" stroke-width="2"/><text x="1135" y="63" text-anchor="middle" font-family="Arial,sans-serif" font-size="22" font-weight="800" fill="#fff">TECHNOLOGY • AI</text><text x="420" y="142" font-family="Arial,sans-serif" font-size="32" font-weight="800" fill="#fff">INDIA'S NEXT AI STEP:</text><rect x="395" y="158" width="560" height="88" rx="18" fill="url(#red)" filter="url(#shadow)"/><text x="675" y="220" text-anchor="middle" font-family="Arial,sans-serif" font-size="62" font-weight="900" fill="#fff">ALWAYS-ON</text><rect x="460" y="258" width="430" height="72" rx="18" fill="url(#yellow)"/><text x="675" y="309" text-anchor="middle" font-family="Arial,sans-serif" font-size="45" font-weight="900" fill="#172033">AI AGENTS</text><text x="675" y="360" text-anchor="middle" font-family="Arial,sans-serif" font-size="27" font-weight="800" fill="#fff">OpenAI • Google • Meta • Persistent AI</text><circle cx="190" cy="315" r="86" fill="#f1c6a8"/><path d="M105 300c12-82 157-100 176 5-38-25-95-22-176-5z" fill="#172033"/><circle cx="155" cy="318" r="9" fill="#172033"/><circle cx="222" cy="318" r="9" fill="#172033"/><path d="M145 346q45 25 88 0" fill="none" stroke="#9d4c45" stroke-width="7" stroke-linecap="round"/><rect x="92" y="403" width="196" height="170" rx="80" fill="#101b36"/><rect x="130" y="440" width="120" height="62" rx="12" fill="#0876d1"/><text x="190" y="480" text-anchor="middle" font-family="Arial,sans-serif" font-size="22" font-weight="800" fill="#fff">Gaurav's</text><text x="190" y="505" text-anchor="middle" font-family="Arial,sans-serif" font-size="17" fill="#fff">AI Explainer</text><rect x="900" y="370" width="300" height="205" rx="28" fill="#071427" stroke="#41d9ff" stroke-width="3" filter="url(#shadow)"/><circle cx="1050" cy="470" r="70" fill="#102b5c" stroke="#20d9ff" stroke-width="4"/><circle cx="1025" cy="462" r="10" fill="#20d9ff"/><circle cx="1075" cy="462" r="10" fill="#20d9ff"/><path d="M1025 495q25 20 50 0" fill="none" stroke="#20d9ff" stroke-width="6" stroke-linecap="round"/><text x="1050" y="410" text-anchor="middle" font-family="Arial,sans-serif" font-size="21" font-weight="800" fill="#fff">PERSISTENT AGENT</text><g font-family="Arial,sans-serif" font-size="18" font-weight="700"><rect x="700" y="400" width="170" height="58" rx="14" fill="#fff"/><text x="785" y="436" text-anchor="middle" fill="#172033">EMAIL • CALENDAR</text><rect x="705" y="475" width="165" height="58" rx="14" fill="#fff"/><text x="787" y="511" text-anchor="middle" fill="#172033">RESEARCH • DATA</text><rect x="1060" y="400" width="170" height="58" rx="14" fill="#fff"/><text x="1145" y="436" text-anchor="middle" fill="#172033">CODE • DOCS</text><rect x="1065" y="475" width="165" height="58" rx="14" fill="#fff"/><text x="1147" y="511" text-anchor="middle" fill="#172033">APPS • ACTION</text></g><g stroke="#35dcff" stroke-width="3" opacity=".8"><path d="M870 429L980 460"/><path d="M870 504L980 480"/><path d="M1120 429L1100 460"/><path d="M1120 504L1100 480"/></g><g font-family="Arial,sans-serif"><rect x="45" y="615" width="360" height="76" rx="18" fill="#071427" stroke="#ef1b2d" stroke-width="2"/><text x="72" y="646" font-size="22" font-weight="900" fill="#ffd429">24/7</text><text x="142" y="646" font-size="21" font-weight="800" fill="#fff">Background Work</text><text x="72" y="675" font-size="16" fill="#c9d8ef">काम चलता रहे • आपको हर समय prompt नहीं देना</text><rect x="430" y="615" width="390" height="76" rx="18" fill="#071427" stroke="#20d9ff" stroke-width="2"/><text x="458" y="646" font-size="21" font-weight="900" fill="#20d9ff">CONTEXT + MEMORY</text><text x="458" y="675" font-size="16" fill="#c9d8ef">Preferences, projects और connected data के साथ continuity</text><rect x="845" y="615" width="390" height="76" rx="18" fill="#071427" stroke="#a64cff" stroke-width="2"/><text x="873" y="646" font-size="21" font-weight="900" fill="#d69aff">ACTION</text><text x="957" y="646" font-size="21" font-weight="800" fill="#fff">Apps पर काम</text><text x="873" y="675" font-size="16" fill="#c9d8ef">Research • email • scheduling • documents • workflows</text></g></svg>
