<svg xmlns="http://www.w3.org/2000/svg" width="1280" height="720"><defs><linearGradient id="b" x1="0" y1="0" x2="1" y2="1"><stop stop-color="#071629"/><stop offset=".55" stop-color="#102b49"/><stop offset="1" stop-color="#210c17"/></linearGradient><linearGradient id="r"><stop stop-color="#e50920"/><stop offset="1" stop-color="#ff5a21"/></linearGradient></defs><rect width="1280" height="720" fill="url(#b)"/><circle cx="1060" cy="280" r="250" fill="#ff9b25" opacity=".14"/><g fill="#fff" opacity=".18"><circle cx="970" cy="100" r="3"/><circle cx="1120" cy="150" r="2"/><circle cx="900" cy="260" r="2"/><circle cx="1200" cy="370" r="3"/></g><text x="40" y="60" fill="#fff" font-family="Arial,sans-serif" font-size="35" font-weight="800">Gaurav’s <tspan fill="#22b8ff">World</tspan></text><text x="42" y="91" fill="#c9d7e9" font-family="Arial,sans-serif" font-size="17">Explore • Learn • Discover</text><rect x="42" y="135" width="780" height="120" rx="12" fill="#07101e" stroke="#d7e3f4" stroke-width="2"/><text x="70" y="221" fill="#fff" font-family="Arial,sans-serif" font-size="87" font-weight="900" letter-spacing="2">DRISHYAM <tspan fill="#ef1d31">3</tspan></text><rect x="42" y="270" width="710" height="82" rx="10" fill="url(#r)"/><text x="75" y="326" fill="#fff" font-family="Arial,sans-serif" font-size="48" font-weight="900">BOX OFFICE • DAY 2</text><text x="60" y="405" fill="#ffe05a" font-family="Arial,sans-serif" font-size="34" font-weight="800">कमाई  •  कहानी  •  Public Reaction</text><text x="60" y="462" fill="#d9e5f5" font-family="Arial,sans-serif" font-size="24">Day 1 reported figures • Day 2 update</text><g transform="translate(870 135)"><rect width="350" height="320" rx="22" fill="#08101c" stroke="#ff9a32" stroke-width="4"/><rect x="20" y="20" width="310" height="170" rx="12" fill="#152b44"/><g stroke="#ffcc6c" stroke-width="3" fill="none"><path d="M45 55h100v55H45zM205 45h90v70h-90zM80 140l55-30 45 25 60-35 45 30"/><path d="M165 22v150M20 105h310"/></g><circle cx="175" cy="95" r="25" fill="#0a1421" stroke="#ffcf6a" stroke-width="3"/><path d="M175 120v35m-30-15h60" stroke="#ffcf6a" stroke-width="5"/><text x="175" y="230" text-anchor="middle" fill="#fff" font-family="Arial,sans-serif" font-size="27" font-weight="800">THE CONCLUSION</text><text x="175" y="272" text-anchor="middle" fill="#ffdc51" font-family="Arial,sans-serif" font-size="22" font-weight="800">SUSPENSE • MYSTERY</text><text x="175" y="300" text-anchor="middle" fill="#cbd9e9" font-family="Arial,sans-serif" font-size="16">Spoiler-free coverage</text></g><rect x="30" y="530" width="1220" height="150" rx="20" fill="#06101f" stroke="#49617d" stroke-width="2"/><g font-family="Arial,sans-serif" font-weight="800" text-anchor="middle"><circle cx="165" cy="603" r="48" fill="#e91d35"/><text x="165" y="615" fill="#fff" font-size="37">₹</text><text x="250" y="590" fill="#ffda42" font-size="24">Day 1</text><text x="250" y="623" fill="#fff" font-size="22">Collection</text><path d="M390 550v110" stroke="#49617d" stroke-width="2"/><circle cx="500" cy="603" r="48" fill="#0879e5"/><text x="500" y="615" fill="#fff" font-size="32">▶</text><text x="585" y="590" fill="#ffda42" font-size="24">Story</text><text x="585" y="623" fill="#fff" font-size="22">What's new?</text><path d="M730 550v110" stroke="#49617d" stroke-width="2"/><circle cx="840" cy="603" r="48" fill="#12a56b"/><text x="840" y="615" fill="#fff" font-size="34">★</text><text x="925" y="590" fill="#ffda42" font-size="24">Reviews</text><text x="925" y="623" fill="#fff" font-size="22">Early reaction</text><path d="M1070 550v110" stroke="#49617d" stroke-width="2"/><text x="1150" y="592" fill="#ffda42" font-size="23">Day 2</text><text x="1150" y="625" fill="#fff" font-size="21">Update</text></g></svg>