<svg xmlns="http://www.w3.org/2000/svg" width="1600" height="900" viewBox="0 0 1600 900"><defs><linearGradient id="bg" x1="0" y1="0" x2="1" y2="1"><stop stop-color="#eaf7ff"/><stop offset=".48" stop-color="#79c7f4"/><stop offset="1" stop-color="#0876d1"/></linearGradient><linearGradient id="nav" x1="0" y1="0" x2="1" y2="0"><stop stop-color="#063c82"/><stop offset="1" stop-color="#0876d1"/></linearGradient></defs><rect width="1600" height="900" fill="url(#bg)"/><rect x="45" y="35" width="480" height="75" rx="38" fill="#fff"/><circle cx="88" cy="72" r="25" fill="#0876d1"/><path d="M73 72a15 15 0 1 0 30 0a15 15 0 1 0-30 0M88 57v30M73 72h30" fill="none" stroke="#fff" stroke-width="3"/><text x="128" y="73" font-family="Arial" font-size="34" font-weight="800" fill="#0b3b70">Gaurav’s <tspan fill="#0876d1">World</tspan></text><text x="129" y="96" font-family="Arial" font-size="14" fill="#4d6680">EXPLORE • LEARN • DISCOVER</text><rect x="1250" y="40" width="300" height="62" rx="31" fill="#063b7a"/><text x="1400" y="79" text-anchor="middle" font-family="Arial" font-size="25" font-weight="800" fill="#fff">COMPUTER SKILLS</text><text x="55" y="190" font-family="Arial" font-size="70" font-weight="900" fill="#fff">Windows</text><rect x="55" y="205" width="820" height="100" rx="22" fill="#063b7a"/><text x="465" y="277" text-anchor="middle" font-family="Arial" font-size="57" font-weight="900" fill="#ffe64d">File Explorer के 12</text><rect x="145" y="320" width="650" height="75" rx="24" fill="#ffe64d"/><text x="470" y="372" text-anchor="middle" font-family="Arial" font-size="47" font-weight="900" fill="#111827">Useful Tricks</text><rect x="55" y="410" width="880" height="58" rx="18" fill="#e31b23"/><text x="495" y="449" text-anchor="middle" font-family="Arial" font-size="28" font-weight="800" fill="#fff">Files और Folders को तेजी से Manage करना सीखें</text><rect x="965" y="125" width="500" height="330" rx="22" fill="#10283f" stroke="#d7f2ff" stroke-width="5"/><rect x="992" y="153" width="446" height="245" rx="10" fill="#f7fbff"/><rect x="1008" y="170" width="110" height="210" fill="#eaf3fb"/><text x="1025" y="198" font-family="Arial" font-size="17" font-weight="700" fill="#0876d1">Home</text><text x="1025" y="235" font-family="Arial" font-size="14" fill="#334155">Desktop</text><text x="1025" y="263" font-family="Arial" font-size="14" fill="#334155">Downloads</text><text x="1025" y="291" font-family="Arial" font-size="14" fill="#334155">Documents</text><text x="1140" y="198" font-family="Arial" font-size="17" font-weight="700" fill="#334155">File Explorer</text><g fill="#0876d1"><rect x="1145" y="225" width="48" height="36" rx="5"/><rect x="1215" y="225" width="48" height="36" rx="5"/><rect x="1285" y="225" width="48" height="36" rx="5"/><rect x="1145" y="295" width="48" height="36" rx="5"/><rect x="1215" y="295" width="48" height="36" rx="5"/><rect x="1285" y="295" width="48" height="36" rx="5"/></g><text x="1169" y="282" text-anchor="middle" font-family="Arial" font-size="12" fill="#334155">Desktop</text><text x="1239" y="282" text-anchor="middle" font-family="Arial" font-size="12" fill="#334155">Downloads</text><text x="1309" y="282" text-anchor="middle" font-family="Arial" font-size="12" fill="#334155">Docs</text><text x="1169" y="352" text-anchor="middle" font-family="Arial" font-size="12" fill="#334155">Music</text><text x="1239" y="352" text-anchor="middle" font-family="Arial" font-size="12" fill="#334155">Videos</text><text x="1309" y="352" text-anchor="middle" font-family="Arial" font-size="12" fill="#334155">Projects</text><path d="M930 455h600l55 50H875z" fill="#0b2034"/><rect x="55" y="495" width="980" height="250" rx="25" fill="#fff" opacity=".97"/><g font-family="Arial" text-anchor="middle"><g fill="#0876d1" font-size="20" font-weight="800"><text x="135" y="540">Win + E</text><text x="295" y="540">Ctrl + Shift + N</text><text x="455" y="540">F2</text><text x="615" y="540">F3</text><text x="775" y="540">Ctrl + T</text><text x="935" y="540">Ctrl + W</text><text x="135" y="650">Alt + Enter</text><text x="295" y="650">F5</text><text x="455" y="650">Ctrl + Tab</text><text x="615" y="650">Search</text><text x="775" y="650">Properties</text><text x="935" y="650">Win + L</text></g><g fill="#172033" font-size="15"><text x="135" y="570">File Explorer</text><text x="295" y="570">New Folder</text><text x="455" y="570">Rename</text><text x="615" y="570">Search Files</text><text x="775" y="570">New Tab</text><text x="935" y="570">Close Tab</text><text x="135" y="680">Properties</text><text x="295" y="680">Refresh</text><text x="455" y="680">Switch Tabs</text><text x="615" y="680">Find Files</text><text x="775" y="680">File Info</text><text x="935" y="680">Lock PC</text></g></g><rect x="1080" y="525" width="440" height="220" rx="24" fill="#ffe64d"/><text x="1120" y="570" font-family="Arial" font-size="25" font-weight="900" fill="#172033">हर दिन के काम में फायदा</text><g font-family="Arial" font-size="21" font-weight="800" fill="#172033"><circle cx="1125" cy="615" r="12" fill="#16a34a"/><text x="1150" y="623">काम जल्दी और आसान</text><circle cx="1125" cy="660" r="12" fill="#16a34a"/><text x="1150" y="668">Files हमेशा Organized</text><circle cx="1125" cy="705" r="12" fill="#16a34a"/><text x="1150" y="713">Productivity बढ़ाएँ</text></g><rect y="805" width="1600" height="95" fill="#063b7a"/><text x="70" y="850" font-family="Arial" font-size="28" font-weight="800" fill="#fff">Gaurav’s World</text><text x="70" y="878" font-family="Arial" font-size="18" fill="#bfe8ff">Computer Skills • Work Faster • Stay Organized</text><text x="1510" y="858" text-anchor="end" font-family="Arial" font-size="21" font-weight="700" fill="#fff">Windows File Explorer • 12 Useful Tricks</text></svg>