<svg xmlns="http://www.w3.org/2000/svg" width="600" height="480" viewBox="0 0 600 480"><defs><linearGradient id="g" x1="0" y1="0" x2="1" y2="1"><stop stop-color="#ff4b3e"/><stop offset="1" stop-color="#e3262f"/></linearGradient><filter id="s"><feDropShadow dx="0" dy="10" stdDeviation="9" flood-opacity=".2"/></filter></defs><rect width="600" height="480" rx="28" fill="url(#g)"/><g transform="translate(60 55)" filter="url(#s)"><path d="M0 18Q0 0 18 0h205l80 80v310q0 18-18 18H18q-18 0-18-18z" fill="#fff"/><path d="M223 0v62q0 18 18 18h62" fill="#ffd9d7"/><rect x="45" y="115" width="195" height="92" rx="10" fill="#e3262f"/><text x="142" y="176" fill="#fff" font-family="Arial" font-size="53" font-weight="900" text-anchor="middle">PDF</text><rect x="46" y="235" width="190" height="9" rx="4" fill="#f0b7b4"/><rect x="46" y="257" width="155" height="9" rx="4" fill="#f0b7b4"/><rect x="46" y="279" width="175" height="9" rx="4" fill="#f0b7b4"/></g><g fill="#fff" font-family="Arial" font-size="23" font-weight="800"><rect x="365" y="78" width="170" height="49" rx="13" fill="#fff" opacity=".98"/><text x="408" y="111" fill="#e3262f">↔ Merge</text><rect x="365" y="139" width="170" height="49" rx="13" fill="#fff" opacity=".98"/><text x="408" y="172" fill="#e3262f">↕ Split</text><rect x="365" y="200" width="170" height="49" rx="13" fill="#fff" opacity=".98"/><text x="408" y="233" fill="#e3262f">⇄ Convert</text><rect x="365" y="261" width="170" height="49" rx="13" fill="#fff" opacity=".98"/><text x="408" y="294" fill="#e3262f">▣ Compress</text><rect x="365" y="322" width="170" height="49" rx="13" fill="#fff" opacity=".98"/><text x="408" y="355" fill="#e3262f">☷ Organize</text></g><text x="62" y="447" fill="#fff" font-family="Arial" font-size="24" font-weight="800">ONESTOP PDF TOOLS</text></svg>