<svg xmlns="http://www.w3.org/2000/svg" width="600" height="480" viewBox="0 0 600 480"><defs><linearGradient id="g" x1="0" y1="0" x2="1" y2="1"><stop stop-color="#ffb52b"/><stop offset="1" stop-color="#ff6b18"/></linearGradient><filter id="s"><feDropShadow dx="0" dy="9" stdDeviation="9" flood-opacity=".2"/></filter></defs><rect width="600" height="480" rx="28" fill="url(#g)"/><g transform="translate(60 55) rotate(-6)" filter="url(#s)"><rect width="285" height="365" rx="14" fill="#fff"/><rect x="22" y="24" width="241" height="48" rx="8" fill="#eaf3ff"/><circle cx="55" cy="48" r="19" fill="#dbeafe"/><rect x="88" y="36" width="125" height="9" rx="4" fill="#123b7a"/><rect x="88" y="52" width="92" height="6" rx="3" fill="#9bb7db"/><circle cx="72" cy="130" r="39" fill="#f2c6a5"/><path d="M34 228c6-63 27-87 38-87s35 24 42 87" fill="#1e4c93"/><path d="M56 166l16 24 17-24" fill="#fff"/><rect x="139" y="102" width="105" height="8" rx="4" fill="#173b78"/><rect x="139" y="121" width="83" height="6" rx="3" fill="#b8cce6"/><rect x="139" y="140" width="92" height="6" rx="3" fill="#b8cce6"/><rect x="32" y="252" width="212" height="8" rx="4" fill="#173b78"/><rect x="32" y="275" width="190" height="6" rx="3" fill="#b8cce6"/><rect x="32" y="294" width="205" height="6" rx="3" fill="#b8cce6"/><rect x="32" y="313" width="160" height="6" rx="3" fill="#b8cce6"/></g><g transform="translate(300 95) rotate(5)" filter="url(#s)"><rect width="120" height="165" rx="10" fill="#fff"/><rect x="10" y="10" width="100" height="145" rx="6" fill="#f2f7ff"/><circle cx="60" cy="49" r="20" fill="#f2c6a5"/><path d="M40 48c2-21 37-29 42 2-12-8-24-9-42-2z" fill="#1d2939"/><path d="M30 145c4-39 17-54 30-54s27 15 31 54" fill="#214e96"/></g><text x="360" y="315" fill="#fff" font-family="Arial" font-size="48" font-weight="900">CREATE</text><text x="360" y="363" fill="#fff" font-family="Arial" font-size="43" font-weight="900">PROFESSIONAL</text><text x="360" y="411" fill="#fff" font-family="Arial" font-size="43" font-weight="900">RESUME</text><text x="365" y="443" fill="#fff" font-family="Arial" font-size="19" font-weight="700">✓ Easy   ✓ Fast   ✓ PDF</text><g transform="translate(275 310) rotate(18)"><path d="M0 0l45 8-12 58-45-8z" fill="#173b78"/><path d="M0 0l10-18 45 8-10 18z" fill="#2d5ea0"/><path d="M-2 57l35 6-8 19-34-6z" fill="#f4c7a7"/></g></svg>